<?xml version="1.0" encoding="utf-8"?>
<!-- Generator: Adobe Illustrator 23.0.5, SVG Export Plug-In . SVG Version: 6.00 Build 0)  -->
<svg version="1.1" id="Capa_1" xmlns="http://www.w3.org/2000/svg" xmlns:xlink="http://www.w3.org/1999/xlink" x="0px" y="0px"
	 viewBox="0 0 155.9 155.9" style="enable-background:new 0 0 155.9 155.9;" xml:space="preserve">
<style type="text/css">
	.st0{fill:#FFFFFF;}
	.st1{fill:#20507A;}
	.st2{fill:none;}
	.st3{fill:#050606;}
	.st4{fill:#040506;}
	.st5{fill:#020203;}
	.st6{fill:#020303;}
	.st7{fill:#030304;}
	.st8{fill:#556CB2;}
</style>
<g>
	<circle id="outer_x5F_circle" class="st0" cx="78" cy="78" r="70.9"/>
	<path id="blue_x5F_ring" class="st1" d="M78,14.1c-35.3,0-63.9,28.6-63.9,63.9s28.6,63.9,63.9,63.9s63.9-28.6,63.9-63.9
		S113.2,14.1,78,14.1z M78,125.8c-26.5,0-47.9-21.4-47.9-47.9S51.5,30.1,78,30.1s47.9,21.4,47.9,47.9S104.4,125.8,78,125.8z"/>
	<circle id="inner_x5F_circle" class="st0" cx="78" cy="78" r="47.9"/>
	<g id="upper_x5F_text">
		<path class="st0" d="M25.8,60.8c0.6,0.2,1.1,0.1,1.4-0.7c0.2-0.5,0.4-1.3,0.5-2l1.5,0.3c-0.1,0.8-0.2,1.5-0.5,2.2
			c-0.6,1.9-1.9,2.4-3.2,1.9l-3.1-1.1c-1.4-0.5-2-1.6-1.4-3.5c0.3-0.7,0.6-1.4,1-2.1l1.4,0.7c-0.3,0.6-0.7,1.3-0.8,1.9
			c-0.3,0.8,0,1.2,0.7,1.4L25.8,60.8z"/>
		<path class="st0" d="M29.7,57.8l-7.1-3.3l0.8-1.6l5.7,2.7l1.3-2.8l1.4,0.7L29.7,57.8z"/>
		<path class="st0" d="M28.3,43.9l4.8,2.9c1,0.6,1.7,1.9,0.5,3.8c-1.2,1.9-2.6,1.9-3.6,1.3l-4.8-2.9l0.9-1.5l4.6,2.8
			c0.5,0.3,1,0.3,1.5-0.5s0.3-1.2-0.2-1.5l-4.6-2.8L28.3,43.9z"/>
		<path class="st0" d="M37.7,44.6l-2.1,2.6l-6.1-4.9l2-2.4c1-1.3,1.9-1.3,2.8-0.7l0.6,0.5c0.4,0.4,0.6,0.8,0.4,1.5
			c0.5-0.4,1.3-0.5,1.9,0l0.6,0.5C38.5,42.4,38.7,43.4,37.7,44.6z M33.3,40.8c-0.3-0.2-0.6-0.2-0.9,0.2l-0.7,0.9l1.4,1.1l0.7-0.9
			c0.3-0.4,0.3-0.7,0-0.9L33.3,40.8z M36,42.6c-0.3-0.3-0.7-0.2-1,0.2l-0.8,1.1l1.4,1.1l0.7-0.9c0.3-0.4,0.5-0.8,0.1-1.2L36,42.6z"
			/>
		<path class="st0" d="M43.4,38.8l-2.3,2l-5.3-5.9l2.3-2c1.4-1.3,2.6-1,3.3-0.2l2.5,2.8C44.7,36.3,44.8,37.5,43.4,38.8z M40.5,34.2
			c-0.4-0.5-0.8-0.6-1.5,0l-0.8,0.7l3.2,3.5l0.8-0.7c0.7-0.6,0.6-1,0.2-1.4L40.5,34.2z"/>
		<path class="st0" d="M46.1,36.5L41.5,30l4.1-2.8l0.9,1.3l-2.6,1.8l0.8,1.2l2.4-1.7l0.9,1.3l-2.4,1.7l1,1.4l2.6-1.8l0.9,1.3
			L46.1,36.5z"/>
		<path class="st0" d="M58.6,29.2L57,30l-1-1.2L53.6,30l0.3,1.6l-1.7,0.8l-1.2-8.1l2.1-1L58.6,29.2z M53.3,28.5l1.6-0.8l-2.2-2.6
			L53.3,28.5z"/>
		<path class="st0" d="M59.1,29.2l-2.5-7.5l1.7-0.6l2,6l3-1l0.5,1.5L59.1,29.2z"/>
		<path class="st0" d="M66.8,27c-1.9,0.4-3-0.3-3.3-1.7l-0.7-3.2c-0.3-1.4,0.4-2.6,2.3-3c0.9-0.2,1.8-0.3,2.5-0.3l0.1,1.6
			c-0.7,0-1.7,0.2-2.3,0.3c-0.9,0.2-1,0.7-0.9,1.3l0.6,2.6c0.1,0.6,0.5,1,1.3,0.9c0.3-0.1,0.6-0.1,1-0.3l-0.5-2.4l1.6-0.4l0.8,3.6
			C68.6,26.5,67.7,26.8,66.8,27z"/>
		<path class="st0" d="M76.1,23.3c0.1,1.2-0.6,2.5-2.8,2.7c-2.2,0.2-3.1-0.9-3.3-2.1l-0.3-3.3c-0.1-1.2,0.6-2.5,2.8-2.7
			c2.2-0.2,3.1,0.9,3.3,2.1L76.1,23.3z M74.1,20.4c-0.1-0.6-0.5-1-1.4-0.9c-0.9,0.1-1.2,0.5-1.2,1.1l0.3,3c0.1,0.6,0.5,1,1.4,0.9
			c0.9-0.1,1.2-0.5,1.2-1.1L74.1,20.4z"/>
		<path class="st0" d="M80.1,23.3l-1,0L79,25.7l-1.8-0.1l0.3-7.9l3.3,0.1c1.9,0.1,2.6,0.9,2.5,2.3l0,1c0,1-0.4,1.6-1.2,1.9l1.8,2.8
			l-2.1-0.1L80.1,23.3z M81.6,20.3c0-0.6-0.2-0.8-0.9-0.9l-1.4-0.1l-0.1,2.3l1.4,0.1c0.8,0,1-0.2,1-0.8L81.6,20.3z"/>
		<path class="st0" d="M84.4,26.1l1.1-7.8l1.8,0.2l-1.1,7.8L84.4,26.1z"/>
		<path class="st0" d="M91.9,21.1l-1.4,6.1l-1.7-0.4l1.4-6.1l-2.1-0.5l0.4-1.5l5.9,1.3L94,21.5L91.9,21.1z"/>
		<path class="st0" d="M96.2,24.3l-1.7,4l-1.6-0.6l3.1-7.2l1.7,0.6l0,5.4l3.6-4l1.7,0.6l-2.5,7.5L98.8,30l1.5-4.1l-2.5,2.6l-1.5-0.6
			L96.2,24.3z"/>
		<path class="st0" d="M101.2,31.1l3.6-7l1.6,0.8l-3.6,7L101.2,31.1z"/>
		<path class="st0" d="M109.3,36l-1.5-1l0.5-1.5L106,32l-1.2,1.1l-1.5-1l6.3-5.3l2,1.3L109.3,36z M107.2,31l1.5,1l1-3.3L107.2,31z"
			/>
		<path class="st0" d="M111.3,37.7l5.3-5.8l3.7,3.3l-1.1,1.2l-2.4-2.1l-1,1.1l2.2,2l-1.1,1.2l-2.2-2l-1.2,1.3l2.4,2.1L115,41
			L111.3,37.7z"/>
		<path class="st0" d="M117.1,43.5c-0.6-0.7-1.1-1.5-1.3-2.2l1.2-0.7c0.3,0.7,0.7,1.3,1.2,2c0.6,0.7,0.9,0.7,1.4,0.3
			c0.5-0.5,0.6-0.5-0.1-1.7c-0.9-1.7-0.8-2.2,0.4-3.3c1.2-1,2-1,3.5,0.6c0.5,0.5,0.9,1.2,1.4,2l-1.2,0.9c-0.5-0.8-0.8-1.3-1.3-1.8
			c-0.5-0.6-0.7-0.6-1.2-0.3c-0.6,0.5-0.6,0.5,0,1.7c1,1.9,0.8,2.3-0.4,3.3C119.5,45.1,118.6,45.3,117.1,43.5z"/>
		<path class="st0" d="M122.5,46c-0.6,0.4-0.8,0.8-0.3,1.5c0.3,0.5,0.8,1.1,1.3,1.6l-1.1,1.1c-0.6-0.5-1.1-1.1-1.5-1.7
			c-1.1-1.6-0.8-2.9,0.3-3.7l2.7-1.9c1.2-0.8,2.5-0.7,3.6,1c0.5,0.6,0.8,1.3,1.1,2l-1.4,0.7c-0.3-0.6-0.7-1.3-1-1.8
			c-0.5-0.7-1-0.7-1.5-0.3L122.5,46z"/>
		<path class="st0" d="M127.5,54.9c-1.1,0.6-2.5,0.4-3.6-1.5c-1.1-2-0.4-3.3,0.7-3.8l2.9-1.6c1.1-0.6,2.5-0.4,3.6,1.5
			s0.4,3.3-0.7,3.8L127.5,54.9z M129.4,51.8c0.5-0.3,0.7-0.8,0.3-1.6c-0.4-0.8-0.9-0.9-1.5-0.7l-2.6,1.4c-0.5,0.3-0.7,0.8-0.3,1.6
			s0.9,0.9,1.5,0.7L129.4,51.8z"/>
		<path class="st0" d="M130.6,56.8l-4.2,1.4l-0.6-1.6l7.5-2.4l0.6,1.7l-4.1,3.5l5.4,0.1l0.6,1.7l-7.3,3l-0.6-1.6l4.1-1.6l-3.6-0.2
			l-0.5-1.5L130.6,56.8z"/>
	</g>
	<g>
		<path class="st2" d="M97.1,39.9c1-0.3,1.4-0.7,2.4-1.8c0.3-0.4,0.6-0.8,0.9-1.1c0.8-0.9,1.6-0.8,2,0.4c0.7,1.9,0.7,3.8-0.4,5.6
			c-0.3,0.6-0.7,1.1-1.2,1.7c1,0.1,2.6-1.8,3.1-1.2c0.5,0.5-0.7,4.8-1.2,5.7c-1.2,2.4-3.1,4-5.2,5.5c-0.4,0.3-0.9,0.6-1.3,0.9
			c0,0,0,0,0,0c1.2,0.4,2.4,0.2,3.6,0.4c3.6,0.5,5.3,2.2,5.4,5.8c0.1,1.6-0.1,3.2-0.6,4.7c-0.1,0.3-0.2,0.6-0.4,0.9
			c1.1,0.1,2.2,0.2,3.3,0.4l-0.2,1.1c-1.3-0.3-2.6-0.4-3.9-0.4c-0.6,0.5-1.4,0.8-2.4,0.9c-0.9,0-1.9,0.1-2.8,0.1c0,0,0,0,0,0
			c0,0,0,0,0,0c-0.1,0.3-0.2,0.8-0.4,1.2c0.6,0.1,1.2,0.1,1.7,0.3c1.9,0.4,3.8,1.3,5.4,2.5l-0.7,0.9c-1.5-1.1-3.2-1.9-5-2.3
			c-0.6-0.1-1.2-0.2-1.8-0.3c-0.1,0.5-0.3,1-0.4,1.4c0.5,0.2,1,0.5,1.5,0.8c1.5,0.9,2.8,2,3.9,3.4l-0.9,0.7c-1-1.3-2.2-2.3-3.6-3.1
			c-0.4-0.2-0.8-0.4-1.2-0.6c0,0.1,0,0.1-0.1,0.1c-1.3,3.1-3,6-5.6,8.3c-1.8,1.5-3.8,2.6-5.9,3.5c-0.5,0.2-2.6,0.9-3.1,1
			c-0.5,0.1-0.6,0.3-0.4,0.8c0.4,0.9,2.9,5.3,3.6,6.4c0,0,0,0,0,0c1.2,1.9,2.6,2.6,5,2.1c3.2-0.8,6.4-1.4,9.4-2.9
			c3.2-1.7,5-4.6,4.2-8.4c-0.5-2.4-0.5-4.7,0.1-7.1c0.6-2.7,2.1-4.6,4.8-5.3c2.8-0.8,5.3-0.2,7.5,1.8c2.4,2.2,3.4,5.2,4.1,8.3
			c0.9,4.2,1.4,8.5-0.2,12.7c-1,2.8-2.7,5.2-5.2,6.9c-0.2,0.1-0.3,0.3-0.5,0.5c-2.2,1.3-4.4,2.7-6.8,3.8c-2.7,1.3-5.5,2.1-8.6,2.4
			c0.5,0.9,0.9,1.8,1.5,2.8c0,0,0,0,0,0l1.6,4.3c0.2,0.8,0.5,1.8,0.7,2.7c13.8-8.4,23.1-23.6,23.1-41c0-19-11.1-35.5-27.2-43.2
			C98.7,36.5,98.2,38.2,97.1,39.9z"/>
		<path id="inner_x5F_body" class="st0" d="M94.9,106.2c-2.6-2.7-5.4-5.4-8.1-8c-2.7-2.6-4.5-5.8-5.7-9.3c-0.3-0.9-0.4-1.2-1.5-1
			c-3.1,0.6-6.2,0.8-9.3,0.1c-6-1.4-10.7-5.1-15.3-8.8c-0.2-0.1-0.5-0.3-0.2-0.6c0.2-0.2,0.4,0.1,0.6,0.2c2.3,1.7,4.7,3.1,7.2,4.6
			c5.2,3.1,10.7,4.4,16.8,3.2c8.7-1.7,14.8-6.2,17.4-16.9c0,0,0,0-0.1,0c-2.8,0.4-5.4-1.4-6-4c-0.5-2.1-2.8-3.8-5-3.7
			c-1.7,0.1-3.2,0.8-4.6,1.8c-0.3,0.2-0.5,0.5-0.7,0.9c-0.8,1.9-2.4,2.9-4.3,3.1c-2,0.2-4.6-0.1-6.1-0.3c-0.6-0.1-1.5-0.1-2.4-0.2
			l-0.2,1.1c-3.6-0.6-7.2-0.7-10.8-0.1c-1.3,0.2-2.5,0.5-3.8,0.8l-0.3-1.1c1.3-0.4,2.6-0.6,3.9-0.9c1.9-0.3,3.9-0.4,5.9-0.4
			c-1.3-0.6-1.9-1.7-2.2-4c-0.2-1.7-0.2-3.4-0.1-5.1c0.2-2.8,2.2-4.8,5.5-5.3c4-0.7,8-0.6,11.9,0.2c0.5,0.1,1,0.3,1.5,0.4
			c2.6,0.9,3.6,2.8,2.6,5.5c-0.3,0.8-0.3,1.7-0.5,2.6c2.8-1.6,5.6-1.9,8.5-0.5c0.9,0.4,0.8-0.2,0.9-0.8c0.1-2.1,1.8-3.9,3.9-4
			c-0.2-0.5-0.2-0.9,0.5-0.6c0.4,0.2,0.6,0.1,0.8-0.1c1.8-1.5,4.7-3.9,5.8-5.6c0.7-1,1.6-4.1,1.6-4.5c0-0.4-2.1,0.8-2.8,1.1
			c-0.4,0.2-1.4,0.6-1.7,0.3c0,0,0-0.1-0.1-0.1c1.5-2.4,3.6-4.7,2.7-8.1c-1.1,1.1-2.1,2.3-3.4,3.1c-0.7,0.4-1.5,0.8-2.3,1.1
			c-0.3,0.1-0.6,0.1-0.8-0.2c-0.1-0.2,0-0.4,0.1-0.5c1.6-1.4,1.9-3.4,2.3-5.3c0.1-0.7,0.2-1.4,0-2.1c-0.2-0.1-0.3-0.1-0.5-0.2
			c-0.6,0.8-1.2,1.4-2,1.9c-3.1,1.9-6.4,3.3-10.1,3.4c-5,0.2-10-0.1-15,0.4C63.5,40,57.9,42,53.1,45.9c-0.3,0.2-0.7,0.4-0.8,0.8
			c-0.1,0.8-0.6,0.6-1.1,0.4c-1.1-0.5-2.2-0.8-3.3-0.8c-3.6-0.1-6.1,3-5.3,6.5c0.5,2,1.6,3.7,2.9,5.3c0.3,0.4,1.1,0.7,0.8,1.2
			c-0.3,0.4-0.9-0.4-1.4-0.4c-0.1,0.4-0.2,0.7-0.3,1.1c-1.5,6.8-0.5,13.4,1.2,19.9c1.5,5.8,4.9,10.5,8.3,15.2
			c0.2,0.3,0.5,0.4,0.9,0.4c3.3-0.3,6.8,1.9,8.1,5c0.1,0.3,0.2,0.6,0.3,0.9c0.1,0.2,0,0.4-0.2,0.5c-0.2,0.1-0.4-0.1-0.5-0.2
			c-0.3-0.5-0.5-0.9-0.8-1.4c-2.9-4.2-7.3-4.7-11.1-1.2c-1.1,1-2.1,2.1-2.9,3.4c-1.8,2.8-3.2,5.8-4.3,8.8c3.1,3.2,6.6,6,10.5,8.2
			c0-0.1,0-0.2,0.1-0.4c0.8-4.1,3.2-7.3,6.2-10c0.4-0.4,0.9-0.6,1.3-0.9c0.2-0.1,0.5-0.4,0.8-0.1c0.2,0.3-0.2,0.4-0.3,0.6
			c-0.3,0.5-0.7,0.9-1,1.3c0,0,0,0-0.1,0c0,0,0,0.1,0,0.1c-0.2,0.3-0.5,0.5-0.7,0.8c-0.4,4-1.1,7.5-1.8,10.9c1.8,0.8,3.6,1.5,5.4,2
			c1.1-0.6,2.1-1.4,3.1-2.2c1.7-1.4,3.4-2.7,5.6-3.3c2.8-0.7,5.2,0.3,6.6,2.8c0.8,1.5,1.1,3.1,0.9,4.7c7.8-0.3,15.1-2.5,21.5-6.2
			c-0.6-2.3-1.3-4.5-1.9-6.1C98.9,111.5,96.9,108.3,94.9,106.2z M52,50.2c-1,2.2-2.4,4.1-4,5.9c-0.4,0.5-0.7,0.2-1-0.1
			c-0.8-0.9-1.4-1.8-1.8-2.9c-1-2.9,0.2-4.6,3.5-4.6c1-0.2,2,0.6,3.1,0.9C52.1,49.5,52.1,49.9,52,50.2z M70.9,74.2
			c3,1.4,6.1,2.4,9.4,1.9c2.6-0.4,4.2-1.8,4.8-4.1c0.2-0.6,0.1-0.9-0.5-1.1c-1.3-0.5-2.3-1.5-3.1-2.6c-0.9-1.2-0.7-2.5,0.6-3.3
			c2.1-1.3,4.4-1.3,6.6-0.2c1.4,0.7,1.7,2.1,1,3.5c-0.6,1.2-1.4,2.1-2.7,2.6c-0.7,0.3-0.9,0.7-0.8,1.4c0.3,3.2,2.1,4.2,5,2.5
			c1.1-0.6,1.9-1.6,3.1-2.4c-0.7,2.4-3,4.4-4.9,4.6c-1.8,0.2-3.1-0.5-4-2.3c-2.2,2.6-5.1,3.2-8.4,2.9c-2.9-0.3-5.3-1.7-7.7-3.6
			C70.2,73.6,70.6,74,70.9,74.2z M68.7,73.1c-1.3,0.5-2.5,1.1-3.7,1.9c-2,1.4-3.7,3.2-5.1,5.3l-1-0.6c1.4-2.3,3.3-4.2,5.4-5.7
			c1.2-0.8,2.5-1.5,3.9-2L68.7,73.1z M54,75.9l-0.6-1c2.6-1.5,5.3-2.7,8.1-3.8c2.1-0.8,4.2-1.4,6.3-1.9l0.3,1.1
			c-2.1,0.5-4.2,1.1-6.2,1.9C59.2,73.2,56.5,74.4,54,75.9z"/>
		<path id="iiner_x5F_left_x5F_hand" class="st0" d="M116.8,98.6c2.1-3,2.9-6.3,2.7-9.9c-0.2-4.3-1-8.5-3.6-12.2
			c-1.6-2.2-3.8-3-6.4-2.5c-2.6,0.5-3.9,2.3-4.4,4.8c-0.4,2.1-0.3,4.2,0,6.3c0.7,4.2-0.8,7.3-4.5,9.5c-3.8,2.2-7.9,2.9-12.4,3.4
			c0.3,0.3,0.4,0.4,0.6,0.5c3.1,3.1,6.5,5.8,9,9.3c0.2,0.3,0.4,0.3,0.8,0.3c4.1-0.8,7.9-2.1,11.4-4.2
			C112.6,102.3,115.1,100.9,116.8,98.6z"/>
		<path id="ear" class="st3" d="M51.7,49.3c-1.1-0.4-2-1.2-3.1-0.9c-3.3,0-4.5,1.7-3.5,4.6c0.4,1.1,1,2.1,1.8,2.9
			c0.3,0.3,0.6,0.6,1,0.1c1.6-1.8,3-3.7,4-5.9C52.1,49.9,52.1,49.5,51.7,49.3z"/>
		<g id="snout">
			<path class="st0" d="M85.6,70.1c1.4-0.1,3.3-2,3.3-3.1c-0.1-0.9-1.4-1.6-3.1-1.6c0,0-0.1,0-0.1,0c0,0,0,0,0,0c-0.2,0-0.4,0-0.6,0
				c-1,0.2-2.1,0.2-2.5,1.2c-0.4,1,0.6,1.6,1.2,2.2C84.3,69.4,84.7,70.1,85.6,70.1z"/>
			<path class="st4" d="M85.5,74.7c0.9,1.8,2.2,2.5,4,2.3c2-0.2,4.2-2.2,4.9-4.6c-1.2,0.9-2.1,1.8-3.1,2.4c-2.8,1.7-4.7,0.8-5-2.5
				c-0.1-0.7,0.1-1.1,0.8-1.4c1.2-0.5,2.1-1.5,2.7-2.6c0.7-1.4,0.3-2.8-1-3.5c-2.2-1.1-4.5-1.1-6.6,0.2c-1.3,0.8-1.5,2.1-0.6,3.3
				c0.8,1.1,1.8,2.1,3.1,2.6c0.6,0.3,0.7,0.5,0.5,1.1c-0.6,2.3-2.2,3.7-4.8,4.1c-3.4,0.5-6.4-0.5-9.4-1.9c-0.4-0.2-0.7-0.6-1.5-0.2
				c2.4,1.8,4.8,3.2,7.7,3.6C80.4,77.9,83.3,77.3,85.5,74.7z M83.7,68.8c-0.6-0.6-1.6-1.2-1.2-2.2c0.4-1,1.5-1.1,2.5-1.2
				c0.2,0,0.4,0,0.6,0c0,0,0,0,0,0c0,0,0.1,0,0.1,0c1.8,0,3.1,0.7,3.1,1.6c0.1,1.1-1.9,3-3.3,3.1C84.7,70.1,84.3,69.4,83.7,68.8z"/>
			<path class="st5" d="M62.3,66.6c-2,0-3.9,0.1-5.9,0.4c-1.3,0.2-2.6,0.5-3.9,0.9l0.3,1.1c1.2-0.3,2.5-0.6,3.8-0.8
				c3.5-0.5,7.2-0.5,10.8,0.1l0.2-1.1c-1.5-0.1-3-0.2-3.4-0.2C63.5,67,62.8,66.9,62.3,66.6z"/>
			<path class="st5" d="M68.1,70.3l-0.3-1.1c-2.1,0.5-4.3,1.1-6.3,1.9c-2.8,1-5.5,2.3-8.1,3.8l0.6,1c2.5-1.4,5.2-2.7,7.9-3.7
				C63.9,71.4,66,70.8,68.1,70.3z"/>
			<path class="st5" d="M58.9,79.7l1,0.6c1.4-2.1,3.1-3.9,5.1-5.3c1.1-0.8,2.4-1.4,3.7-1.9L68.2,72c-1.4,0.5-2.7,1.2-3.9,2
				C62.2,75.5,60.3,77.4,58.9,79.7z"/>
			<path class="st5" d="M103.4,68.6c1.3,0,2.6,0.1,3.9,0.4l0.2-1.1c-1.1-0.2-2.2-0.4-3.3-0.4c-0.1,0.2-0.2,0.4-0.4,0.6
				C103.7,68.2,103.6,68.4,103.4,68.6z"/>
			<path class="st5" d="M97.5,72c0.6,0,1.2,0.1,1.8,0.3c1.8,0.4,3.5,1.2,5,2.3l0.7-0.9c-1.7-1.2-3.5-2.1-5.4-2.5
				c-0.6-0.1-1.1-0.2-1.7-0.3c0,0.1-0.1,0.3-0.1,0.4C97.6,71.5,97.5,71.8,97.5,72z"/>
			<path class="st5" d="M96.7,74.5c0.4,0.2,0.8,0.4,1.2,0.6c1.4,0.8,2.6,1.9,3.6,3.1l0.9-0.7c-1.1-1.4-2.4-2.5-3.9-3.4
				c-0.5-0.3-1-0.5-1.5-0.8c0,0.1-0.1,0.2-0.1,0.3C96.9,74,96.8,74.3,96.7,74.5z"/>
		</g>
		<g id="eyes">
			<path id="inner_x5F_right" class="st0" d="M92.9,65.1c0.2,1,0.7,1.5,1.7,1.9c1.5,0.6,2.9-0.1,4.1,0.2c0.9,0,1.5-0.1,2.1,0
				c1.2,0.1,1.8-0.5,2.2-1.7c0.3-1.3,0.4-2.5,0.4-3.8c-0.1-2.3-1.1-3.3-3.4-3.7c-2.4-0.4-4.7,0.1-7,0.2c-0.4,0-0.7,0.1-0.6,0.6
				C92.7,60.9,92.5,63.1,92.9,65.1z M95.5,60.1c0.2-0.5,0.4-1.1,1.2-1c1,0.2,2,0.2,2.1,1.5c0.1,1.6-0.1,3.3-0.6,4.8
				c-0.4,1-1.1,1.4-2.1,1.2c-0.9-0.2-1.2-0.9-1.3-1.7c0-0.3-0.1-0.7-0.1-1.1C94.7,62.5,94.9,61.3,95.5,60.1z"/>
			<path id="inner_x5F_left" class="st0" d="M77.6,54.8c-2.2-0.5-4.5-0.8-6.8-0.7c-1.5,0-3.1,0.1-4.6,0.3c-2.2,0.3-3.5,1.3-3.8,3.1
				c-0.4,2-0.2,4,0.3,6c0.1,0.5,0.4,0.9,1,1c4,0.6,8.1,1.1,12.2,0.9c1.8-0.1,2.6-1,3-2.8c0.3-1.5,0.5-3.1,0.8-4.6
				C80,56,79.7,55.3,77.6,54.8z M74.5,61.9c-0.5,1.2-1.2,1.6-2.3,1.5c-1.2-0.1-1.8-0.7-1.9-2c-0.1-1.5-0.1-3.1,0.5-4.5
				c0.6-1.3,1.1-1.6,2.6-1.3c1.1,0.2,1.6,1,1.7,2c0,0.3,0,0.6,0,0.9C75,59.6,74.9,60.8,74.5,61.9z"/>
			<path id="pupil_x5F_left_1_" class="st6" d="M73.4,55.6c-1.4-0.3-2,0-2.6,1.3c-0.7,1.5-0.6,3-0.5,4.5c0.1,1.3,0.7,1.9,1.9,2
				c1.1,0.1,1.8-0.3,2.3-1.5c0.4-1.1,0.6-2.3,0.6-3.5c0-0.3,0-0.6,0-0.9C75,56.5,74.5,55.8,73.4,55.6z"/>
			<path id="pupil_x5F_right" class="st7" d="M96.1,66.6c1,0.2,1.8-0.2,2.1-1.2c0.6-1.6,0.8-3.2,0.6-4.8c-0.1-1.3-1.2-1.3-2.1-1.5
				c-0.9-0.1-1,0.4-1.2,1c-0.5,1.2-0.8,2.5-0.8,3.7c0,0.5,0.1,0.8,0.1,1.1C94.8,65.7,95.2,66.4,96.1,66.6z"/>
			<path id="glasses" class="st8" d="M105.3,61.8c-0.2-3.6-1.8-5.4-5.4-5.8c-1.2-0.2-2.5,0-3.6-0.4c0,0,0,0,0,0
				c-0.3,0.1-0.6,0.2-0.9,0.2c-0.1,0-0.3,0-0.4,0c0,0-0.1,0-0.1,0c-0.1,0-0.3-0.1-0.4-0.2v0c-2.1,0.2-3.8,1.9-3.9,4
				c0,0.5,0.1,1.2-0.9,0.8c-2.9-1.4-5.7-1.1-8.5,0.5c0.2-0.9,0.2-1.8,0.5-2.6c1-2.6,0-4.6-2.6-5.5c-0.5-0.2-1-0.3-1.5-0.4
				c-4-0.8-8-0.8-11.9-0.2c-3.3,0.6-5.3,2.5-5.5,5.3c-0.1,1.7-0.2,3.4,0.1,5.1c0.3,2.2,1,3.4,2.2,4c0.5,0.2,1.1,0.4,1.9,0.4
				c0.4,0,1.9,0.1,3.4,0.2c0.9,0.1,1.8,0.1,2.4,0.2c1.5,0.1,4.1,0.5,6.1,0.3c1.9-0.2,3.5-1.1,4.3-3.1c0.1-0.3,0.3-0.7,0.7-0.9
				c1.4-1,2.9-1.6,4.6-1.8c2.2-0.2,4.5,1.5,5,3.7c0.6,2.6,3.2,4.3,6,4c0,0,0,0,0.1,0c0.1,0,0.1,0,0.2-0.1c0.1,0,0.2-0.1,0.3-0.1
				c0,0,0,0,0,0c0,0,0.1,0,0.1,0c0,0,0,0,0,0c0.2,0,0.3,0,0.5,0.1c0.1,0,0.1,0,0.2,0.1c0,0,0,0,0,0c0.9,0,1.9-0.1,2.8-0.1
				c1,0,1.8-0.3,2.4-0.9c0.2-0.2,0.4-0.4,0.5-0.6c0.1-0.2,0.2-0.4,0.4-0.6c0.1-0.3,0.3-0.6,0.4-0.9C105.2,65,105.3,63.4,105.3,61.8z
				 M79.6,58.1c-0.3,1.5-0.5,3.1-0.8,4.6c-0.3,1.8-1.2,2.6-3,2.8c-4.1,0.3-8.1-0.3-12.2-0.9c-0.6-0.1-0.8-0.5-1-1
				c-0.5-2-0.7-4-0.3-6c0.3-1.8,1.6-2.9,3.8-3.1c1.6-0.2,3.1-0.3,4.6-0.3c2.4-0.1,4.6,0.1,6.8,0.7C79.7,55.3,80,56,79.6,58.1z
				 M94.5,67.1c-0.9-0.4-1.5-0.9-1.7-1.9c-0.4-2.1-0.2-4.2-0.5-6.3c-0.1-0.5,0.2-0.6,0.6-0.6c2.3-0.2,4.7-0.6,7-0.2
				c2.3,0.3,3.3,1.4,3.4,3.7c0.1,1.3,0,2.5-0.4,3.8c-0.3,1.2-0.9,1.8-2.2,1.7c-0.6,0-1.2,0-2.1,0C97.5,67,96,67.7,94.5,67.1z"/>
		</g>
		<g id="border">
			<path class="st5" d="M47.8,102.4c0.8-1.3,1.8-2.3,2.9-3.4c3.7-3.5,8.2-3,11.1,1.2c0.3,0.4,0.6,0.9,0.8,1.4
				c0.1,0.2,0.3,0.3,0.5,0.2c0.2-0.1,0.3-0.3,0.2-0.5c-0.1-0.3-0.2-0.6-0.3-0.9c-1.3-3.1-4.8-5.3-8.1-5c-0.4,0-0.7,0-0.9-0.4
				c-3.4-4.7-6.8-9.4-8.3-15.2c-1.7-6.6-2.7-13.2-1.2-19.9c0.1-0.4,0.2-0.8,0.3-1.1c0.6,0.1,1.1,0.9,1.4,0.4
				c0.4-0.5-0.4-0.8-0.8-1.2c-1.3-1.6-2.4-3.3-2.9-5.3c-0.8-3.5,1.8-6.6,5.3-6.5c1.2,0,2.3,0.3,3.3,0.8c0.5,0.2,0.9,0.5,1.1-0.4
				c0.1-0.4,0.5-0.5,0.8-0.8c4.8-3.9,10.4-5.9,16.6-6.4c5-0.4,10-0.2,15-0.4c3.7-0.1,7-1.5,10.1-3.4c0.8-0.5,1.4-1.1,2-1.9
				c-0.5-0.2-0.9-0.4-1.4-0.6c-0.9,1-2.1,1.8-3.3,2.4c-2.7,1.4-5.6,2.1-8.7,2.1c-4.3,0-8.7-0.1-13,0.2c-6.7,0.5-12.8,2.5-18,6.7
				c-0.7,0.6-1.3,0.7-2.2,0.4c-4.4-1.4-8.5,1-9.1,5.3c-0.4,2.5,0.6,4.7,2.1,6.7c0.3,0.5,0.4,0.8,0.3,1.3c-2.3,10.6-0.6,20.6,4.6,30
				c1.4,2.6,3.4,4.8,5.2,7.2c-2.5,1.2-4.3,3.1-6,5.2c-2.2,2.8-3.5,6-4.7,9.3c0.3,0.4,0.7,0.7,1,1.1C44.6,108.1,46,105.2,47.8,102.4z
				"/>
			<path class="st5" d="M97.2,36.2c-0.4,1.9-0.6,3.9-2.3,5.3c-0.2,0.1-0.3,0.3-0.1,0.5c0.2,0.3,0.5,0.3,0.8,0.2
				c0.8-0.3,1.6-0.7,2.3-1.1c1.3-0.8,2.2-1.9,3.4-3.1c0.9,3.4-1.2,5.7-2.7,8.1c0,0,0,0.1,0.1,0.1c0.4,0.3,1.3-0.1,1.7-0.3
				c0.7-0.3,2.8-1.6,2.8-1.1c0,0.4-1,3.5-1.6,4.5c-1.1,1.7-4,4.1-5.8,5.6c-0.2,0.2-0.4,0.4-0.8,0.1c-0.6-0.3-0.7,0.1-0.5,0.6
				c0.1,0.1,0.3,0.1,0.4,0.2c0,0,0.1,0,0.1,0c0.1,0,0.3,0,0.4,0c0.3,0,0.6-0.2,0.9-0.2c0.4-0.3,0.9-0.6,1.3-0.9
				c2.1-1.5,4.1-3.1,5.2-5.5c0.5-1,1.7-5.2,1.2-5.7c-0.6-0.6-2.1,1.3-3.1,1.2c0.5-0.7,0.9-1.2,1.2-1.7c1.1-1.8,1.1-3.7,0.4-5.6
				c-0.4-1.2-1.2-1.3-2-0.4c-0.3,0.4-0.6,0.8-0.9,1.1c-1,1.1-1.4,1.4-2.4,1.8c1.1-1.7,1.6-3.4,1.6-5.2c-0.5-0.2-1-0.5-1.5-0.7
				C97.4,34.8,97.3,35.5,97.2,36.2z"/>
			<path class="st5" d="M57.5,114.3c0.3-0.4,0.6-0.8,0.8-1.2c-0.4,2.8-0.9,5.4-1.4,7.9c0.5,0.2,1,0.5,1.4,0.7
				c0.7-3.4,1.4-6.9,1.8-10.9c0.2-0.3,0.5-0.5,0.7-0.8c0,0,0-0.1,0-0.1c0,0,0,0,0.1,0c0.3-0.4,0.7-0.9,1-1.3
				c0.1-0.2,0.5-0.3,0.3-0.6c-0.2-0.3-0.5-0.1-0.8,0.1c-0.5,0.3-1,0.5-1.3,0.9c-3,2.8-5.4,5.9-6.2,10c0,0.1,0,0.2-0.1,0.4
				c0.5,0.3,0.9,0.5,1.4,0.8C55.4,118.1,56.3,116.1,57.5,114.3z"/>
		</g>
		<g id="hair_x5F_out">
			<path id="hair_x5F_outer_1_" class="st0" d="M97,33.5c-0.1,0.1-0.2,0.2-0.3,0.4c0.2,0.1,0.3,0.1,0.5,0.2
				C97.1,33.9,97,33.7,97,33.5z"/>
			<path id="hair_x5F_outer" class="st5" d="M97,33.5c0.1,0.2,0.1,0.4,0.2,0.6c0.5,0.2,1,0.5,1.5,0.7c0-0.8-0.2-1.6-0.4-2.4
				c-0.2-0.5-0.3-1.1-0.9-1.2c-0.6-0.1-0.9,0.4-1.1,0.8c-0.3,0.5-0.6,0.9-0.9,1.3c0.5,0.2,0.9,0.4,1.4,0.6
				C96.8,33.7,96.9,33.6,97,33.5z"/>
		</g>
		<g id="hand">
			<path class="st0" d="M76.2,120.1c-2-1.2-3.9-0.4-5.7,0.7c-1.4,0.9-2.7,2-4.1,3c-0.2,0.2-0.5,0.3-0.7,0.5
				c-1.6,1.2-3.4,1.9-5.4,2.3c-1.1,0.2-2,0.2-2.9,0c-0.5-0.1-1-0.3-1.5-0.6c-1.2-0.8-1.9-2.2-2.1-4.2c-0.1-0.8-0.1-1.6,0-2.5
				c-3.9-2.2-7.4-5-10.5-8.2c-1.3,3.6-2.1,7.4-2.5,11.3c-0.3,3.4,0.1,6.2,1.3,8.5c1.5,2.9,4.4,5,8.4,6.3c1.4,0.4,2.7,0.8,4.1,1
				c0.5,0.1,1,0.2,1.6,0.2c0.5,0.1,1,0.1,1.5,0.1c4.3,0.2,8.5-0.6,12.7-2.4c4.4-2,7.4-5.4,7.9-10.3c0-0.1,0-0.3,0-0.4
				C78.7,123.3,78.2,121.2,76.2,120.1z"/>
			<path class="st5" d="M79.1,121.1c-1.4-2.5-3.8-3.5-6.6-2.8c-2.2,0.6-3.9,1.9-5.6,3.3c-1,0.8-2,1.6-3.1,2.2
				c-1,0.6-2.1,1.1-3.4,1.3c-0.6,0.1-1.1,0.2-1.7,0.2c-0.4,0-0.8,0-1-0.1c-0.4-0.1-1.1-0.5-1.4-0.8c-0.3-0.3-0.5-0.8-0.7-1.5
				c-0.2-0.9-0.3-1.8-0.3-2.7c-0.5-0.3-0.9-0.5-1.4-0.8c-0.1,0.8-0.1,1.6,0,2.5c0.2,2,0.9,3.4,2.1,4.2c0.4,0.3,0.9,0.5,1.5,0.6
				c0.8,0.2,1.8,0.2,2.9,0c2-0.4,3.8-1.2,5.4-2.3c0.2-0.2,0.5-0.3,0.7-0.5c1.3-1,2.6-2.1,4.1-3c1.8-1.1,3.7-1.9,5.7-0.7
				c2,1.2,2.5,3.2,2.4,5.4c0,0.1,0,0.3,0,0.4c-0.6,5-3.5,8.4-7.9,10.3c-4.1,1.9-8.4,2.6-12.7,2.4c-0.5,0-1-0.1-1.5-0.1
				c-0.5-0.1-1-0.1-1.6-0.2c-1.4-0.2-2.7-0.6-4.1-1c-4.1-1.3-6.9-3.4-8.4-6.3c-1.2-2.3-1.7-5.1-1.3-8.5c0.4-3.9,1.2-7.6,2.5-11.3
				c-0.3-0.3-0.7-0.7-1-1.1c-0.1,0.3-0.2,0.7-0.4,1c-0.3,0.8-1.9,6.7-2.2,8.7c-0.5,3.2-0.8,6.4,0.3,9.6c0.1,0.3,0.2,0.6,0.3,0.9
				c1.9,4.5,5.5,7,10,8.3c1.5,0.4,3.3,0.8,4.4,1c0.4,0.1,1.2,0.2,1.6,0.2c1.5,0.1,4.1,0.2,6.1,0c3.4-0.4,6.7-1.4,10-3.1
				c3.9-2.1,6.5-5.4,7.4-9.9c0.1-0.4,0.1-0.8,0.2-1.2C80.2,124.2,80,122.6,79.1,121.1z"/>
		</g>
		<path class="st5" d="M120.2,82.9c-0.7-3.1-1.7-6.1-4.1-8.3c-2.1-2-4.7-2.6-7.5-1.8c-2.7,0.8-4.2,2.7-4.8,5.3
			c-0.5,2.4-0.5,4.8-0.1,7.1c0.7,3.8-1,6.6-4.2,8.4c-2.9,1.6-6.2,2.2-9.4,2.9c-2.4,0.6-3.8-0.2-5-2.1c0,0,0,0,0,0
			c-0.8-1-3.2-5.4-3.6-6.4c-0.2-0.4-0.1-0.7,0.4-0.8c0.5-0.1,2.6-0.8,3.1-1c2.2-0.8,4.2-1.9,5.9-3.5c2.6-2.3,4.3-5.2,5.6-8.3
			c0,0,0-0.1,0.1-0.1c0.1-0.2,0.2-0.5,0.3-0.8c0-0.1,0.1-0.2,0.1-0.3c0.1-0.4,0.3-0.9,0.4-1.4c0.1-0.2,0.1-0.5,0.2-0.7
			c0-0.1,0.1-0.3,0.1-0.4c0.1-0.5,0.3-0.9,0.4-1.2c0,0,0,0,0,0c-0.1,0-0.1,0-0.2-0.1c-0.2-0.1-0.3-0.1-0.5-0.1c0,0,0,0,0,0
			c0,0-0.1,0-0.1,0c0,0,0,0,0,0c-0.1,0-0.2,0-0.3,0.1c-0.1,0-0.1,0-0.2,0.1c-2.6,10.7-8.7,15.3-17.4,16.9
			c-6.1,1.2-11.6-0.2-16.8-3.2c-2.5-1.4-4.9-2.9-7.2-4.6c-0.2-0.1-0.4-0.4-0.6-0.2c-0.3,0.2,0,0.4,0.2,0.6c4.6,3.8,9.3,7.5,15.3,8.8
			c3.1,0.7,6.3,0.5,9.3-0.1c1.1-0.2,1.2,0.1,1.5,1c1.2,3.5,3.1,6.6,5.7,9.3c2.7,2.7,5.5,5.3,8.1,8c2,2.1,4,5.3,4.8,7.3
			c0.6,1.6,1.3,3.7,1.9,6.1c0.4-0.2,0.8-0.5,1.2-0.7c-0.2-0.9-0.4-1.9-0.7-2.7l-1.6-4.3c0,0,0,0,0,0c-0.5-1-1-1.8-1.5-2.8
			c3.1-0.3,5.9-1.2,8.6-2.4c2.3-1.1,4.5-2.5,6.8-3.8c0.2-0.2,0.3-0.3,0.5-0.5c2.5-1.7,4.2-4.1,5.2-6.9
			C121.6,91.4,121.2,87.1,120.2,82.9z M116.8,98.6c-1.7,2.4-4.2,3.7-6.7,5.2c-3.5,2.1-7.4,3.5-11.4,4.2c-0.4,0.1-0.6,0-0.8-0.3
			c-2.6-3.5-6-6.3-9-9.3c-0.1-0.1-0.3-0.3-0.6-0.5c4.5-0.5,8.7-1.2,12.4-3.4c3.7-2.1,5.2-5.3,4.5-9.5c-0.3-2.1-0.4-4.2,0-6.3
			c0.5-2.5,1.8-4.2,4.4-4.8c2.6-0.5,4.9,0.3,6.4,2.5c2.6,3.6,3.3,7.8,3.6,12.2C119.7,92.3,119,95.6,116.8,98.6z"/>
	</g>
</g>
</svg>
